<svg width="280" height="51" viewBox="0 0 280 51" fill="none" xmlns="http://www.w3.org/2000/svg">
<path d="M3.989 50.5V10H27.489C28.589 10 29.589 10.2833 30.489 10.85C31.4223 11.3833 32.1557 12.1167 32.689 13.05C33.2557 13.95 33.539 14.95 33.539 16.05V32.95C33.539 34.05 33.2557 35.0667 32.689 36C32.1557 36.9 31.4223 37.6333 30.489 38.2C29.589 38.7333 28.589 39 27.489 39H8.089V50.5H3.989ZM10.089 34.9H27.489C28.0223 34.9 28.4723 34.7167 28.839 34.35C29.239 33.95 29.439 33.4833 29.439 32.95V16.05C29.439 15.5167 29.239 15.0667 28.839 14.7C28.4723 14.3 28.0223 14.1 27.489 14.1H10.089C9.55567 14.1 9.089 14.3 8.689 14.7C8.289 15.0667 8.089 15.5167 8.089 16.05V32.95C8.089 33.4833 8.289 33.95 8.689 34.35C9.089 34.7167 9.55567 34.9 10.089 34.9ZM43.0921 39C41.9921 39 40.9755 38.7333 40.0421 38.2C39.1421 37.6333 38.4088 36.9 37.8421 36C37.3088 35.0667 37.0421 34.05 37.0421 32.95V16.05C37.0421 14.95 37.3088 13.95 37.8421 13.05C38.4088 12.1167 39.1421 11.3833 40.0421 10.85C40.9755 10.2833 41.9921 10 43.0921 10H60.4921C61.6255 10 62.6421 10.2833 63.5421 10.85C64.4755 11.3833 65.2088 12.1167 65.7421 13.05C66.3088 13.95 66.5921 14.95 66.5921 16.05V32.95C66.5921 34.05 66.3088 35.0667 65.7421 36C65.2088 36.9 64.4755 37.6333 63.5421 38.2C62.6421 38.7333 61.6255 39 60.4921 39H43.0921ZM43.0921 34.9H60.4921C61.0255 34.9 61.4755 34.7167 61.8421 34.35C62.2421 33.95 62.4421 33.4833 62.4421 32.95V16.05C62.4421 15.5167 62.2421 15.0667 61.8421 14.7C61.4755 14.3 61.0255 14.1 60.4921 14.1H43.0921C42.5588 14.1 42.0921 14.3 41.6921 14.7C41.3255 15.0667 41.1421 15.5167 41.1421 16.05V32.95C41.1421 33.4833 41.3255 33.95 41.6921 34.35C42.0921 34.7167 42.5588 34.9 43.0921 34.9ZM71.8113 39V10H110.111C111.245 10 112.261 10.2833 113.161 10.85C114.095 11.3833 114.828 12.1167 115.361 13.05C115.895 13.95 116.161 14.95 116.161 16.05V39H112.111V16.05C112.111 15.5167 111.911 15.0667 111.511 14.7C111.111 14.3 110.645 14.1 110.111 14.1H98.0613C97.5279 14.1 97.0613 14.3 96.6613 14.7C96.2946 15.0667 96.1113 15.5167 96.1113 16.05V39H91.9613V16.05C91.9613 15.5167 91.7613 15.0667 91.3613 14.7C90.9946 14.3 90.5446 14.1 90.0113 14.1H77.9113C77.3779 14.1 76.9113 14.3 76.5113 14.7C76.1446 15.0667 75.9613 15.5167 75.9613 16.05V39H71.8113ZM126.588 39C125.488 39 124.472 38.7333 123.538 38.2C122.638 37.6333 121.905 36.9 121.338 36C120.805 35.0667 120.538 34.05 120.538 32.95V16.05C120.538 14.95 120.805 13.95 121.338 13.05C121.905 12.1167 122.638 11.3833 123.538 10.85C124.472 10.2833 125.488 10 126.588 10H143.988C145.122 10 146.138 10.2833 147.038 10.85C147.972 11.3833 148.705 12.1167 149.238 13.05C149.805 13.95 150.088 14.95 150.088 16.05V32.95C150.088 34.05 149.805 35.0667 149.238 36C148.705 36.9 147.972 37.6333 147.038 38.2C146.138 38.7333 145.122 39 143.988 39H126.588ZM126.588 34.9H143.988C144.522 34.9 144.972 34.7167 145.338 34.35C145.738 33.95 145.938 33.4833 145.938 32.95V16.05C145.938 15.5167 145.738 15.0667 145.338 14.7C144.972 14.3 144.522 14.1 143.988 14.1H126.588C126.055 14.1 125.588 14.3 125.188 14.7C124.822 15.0667 124.638 15.5167 124.638 16.05V32.95C124.638 33.4833 124.822 33.95 125.188 34.35C125.588 34.7167 126.055 34.9 126.588 34.9ZM159.857 39C158.724 39 157.691 38.7333 156.757 38.2C155.857 37.6333 155.124 36.9 154.557 36C154.024 35.0667 153.757 34.05 153.757 32.95V16.05C153.757 14.95 154.024 13.95 154.557 13.05C155.124 12.1167 155.857 11.3833 156.757 10.85C157.691 10.2833 158.724 10 159.857 10H179.207V0.499998H183.307V39H159.857ZM159.857 34.9H177.257C177.791 34.9 178.241 34.7167 178.607 34.35C179.007 33.95 179.207 33.4833 179.207 32.95V16.05C179.207 15.5167 179.007 15.0667 178.607 14.7C178.241 14.3 177.791 14.1 177.257 14.1H159.857C159.324 14.1 158.857 14.3 158.457 14.7C158.091 15.0667 157.907 15.5167 157.907 16.05V32.95C157.907 33.4833 158.091 33.95 158.457 34.35C158.857 34.7167 159.324 34.9 159.857 34.9ZM193.434 39C192.334 39 191.317 38.7333 190.384 38.2C189.484 37.6333 188.751 36.9 188.184 36C187.651 35.0667 187.384 34.05 187.384 32.95V16.05C187.384 14.95 187.651 13.95 188.184 13.05C188.751 12.1167 189.484 11.3833 190.384 10.85C191.317 10.2833 192.334 10 193.434 10H210.834C211.967 10 212.984 10.2833 213.884 10.85C214.817 11.3833 215.551 12.1167 216.084 13.05C216.651 13.95 216.934 14.95 216.934 16.05V32.95C216.934 34.05 216.651 35.0667 216.084 36C215.551 36.9 214.817 37.6333 213.884 38.2C212.984 38.7333 211.967 39 210.834 39H193.434ZM193.434 34.9H210.834C211.367 34.9 211.817 34.7167 212.184 34.35C212.584 33.95 212.784 33.4833 212.784 32.95V16.05C212.784 15.5167 212.584 15.0667 212.184 14.7C211.817 14.3 211.367 14.1 210.834 14.1H193.434C192.901 14.1 192.434 14.3 192.034 14.7C191.667 15.0667 191.484 15.5167 191.484 16.05V32.95C191.484 33.4833 191.667 33.95 192.034 34.35C192.434 34.7167 192.901 34.9 193.434 34.9ZM221.565 39V16.05C221.565 14.95 221.831 13.95 222.365 13.05C222.931 12.1167 223.665 11.3833 224.565 10.85C225.498 10.2833 226.515 10 227.615 10H243.915V14.1H227.615C227.081 14.1 226.615 14.3 226.215 14.7C225.848 15.0667 225.665 15.5167 225.665 16.05V39H221.565Z" fill="#F4EDDB"/>
<rect x="250.42" y="12" width="25" height="25" rx="4" stroke="#F4EDDB" stroke-width="4"/>
<path d="M262.42 17H266.42V27H262.42V17Z" fill="#F4EDDB"/>
<path d="M258.42 3L258.42 7L248.42 7L248.42 3L258.42 3Z" fill="#F4EDDB"/>
<path d="M279.08 6L277.08 9.4641L268.42 4.4641L270.42 0.999999L279.08 6Z" fill="#F4EDDB"/>
<path d="M266.42 23H270.42V27H266.42V23Z" fill="#F4EDDB"/>
</svg>
